<?xml version="1.0" encoding="UTF-8" standalone="no"?>
<!DOCTYPE svg PUBLIC "-//W3C//DTD SVG 1.1//EN" "http://www.w3.org/Graphics/SVG/1.1/DTD/svg11.dtd">
<!-- Generated by Microsoft Visio, SVG Export hkust_logo.svg Page-1 -->
<svg xmlns="http://www.w3.org/2000/svg" xmlns:xlink="http://www.w3.org/1999/xlink" xmlns:ev="http://www.w3.org/2001/xml-events"
		xmlns:v="http://schemas.microsoft.com/visio/2003/SVGExtensions/" width="3.2339in" height="1.0295in"
		viewBox="0 0 232.84 74.124" xml:space="preserve" color-interpolation-filters="sRGB" class="st2">
	<v:documentProperties v:langID="1033" v:viewMarkup="false"/>

	<style type="text/css">
	<![CDATA[
		.st1 {fill:#ffffff;stroke:none;stroke-linecap:butt;stroke-width:0.75}
		.st2 {fill:none;fill-rule:evenodd;font-size:12px;overflow:visible;stroke-linecap:square;stroke-miterlimit:3}
	]]>
	</style>

	<g v:mID="0" v:index="1" v:groupContext="foregroundPage">
		<title>Page-1</title>
		<v:pageProperties v:drawingScale="1" v:pageScale="1" v:drawingUnits="19" v:shadowOffsetX="9" v:shadowOffsetY="-9"/>
		<g id="group1-1" transform="translate(0.75,-0.85125)" v:mID="1" v:groupContext="group">
			<title>Sheet.1</title>
			<g id="shape2-2" v:mID="2" v:groupContext="shape" transform="translate(13.1138,-57.66)">
				<title>Sheet.2</title>
				<path d="M20.1 74.12 C20.44 73.7 20.56 72.93 20.56 72.93 L0 72.93 C0 72.93 0.25 73.78 0.47 74.12 L20.1 74.12 Z"
						class="st1"/>
			</g>
			<g id="shape3-4" v:mID="3" v:groupContext="shape" transform="translate(13.962,-55.9155)">
				<title>Sheet.3</title>
				<path d="M18.06 74.12 C18.44 73.78 18.83 73.1 18.83 73.1 L0 73.1 C0 73.1 0.21 73.61 0.68 74.12 L18.06 74.12 Z"
						class="st1"/>
			</g>
			<g id="shape4-6" v:mID="4" v:groupContext="shape" transform="translate(15.285,-54.3375)">
				<title>Sheet.4</title>
				<path d="M15.25 74.12 C15.71 73.87 16.1 73.36 16.1 73.36 L0 73.36 C0 73.36 0.38 73.78 0.76 74.12 L15.25 74.12 Z"
						class="st1"/>
			</g>
			<g id="shape5-8" v:mID="5" v:groupContext="shape" transform="translate(17.0768,-52.8473)">
				<title>Sheet.5</title>
				<path d="M11.58 74.12 C12.04 73.95 12.56 73.52 12.56 73.52 L0 73.52 C0 73.52 0 73.62 0.89 74.12 L11.58 74.12 Z"
						class="st1"/>
			</g>
			<g id="shape6-10" v:mID="6" v:groupContext="shape" transform="translate(19.4123,-51.141)">
				<title>Sheet.6</title>
				<path d="M0 73.35 C0 73.35 1.32 74.12 3.92 74.12 C6.52 74.12 8.17 73.35 8.17 73.35 L0 73.35 Z" class="st1"/>
			</g>
			<g id="shape7-12" v:mID="7" v:groupContext="shape" transform="translate(0,-42.0698)">
				<title>Sheet.7</title>
				<path d="M19.2 66.03 C19.2 66.03 20.78 66.11 21.71 66.83 C22.61 67.61 23.29 68.88 23.29 68.88 C23.29 68.88 23.84
							 67.65 24.74 67.01 C25.63 66.32 27.08 66.03 27.08 66.03 L43.31 66.03 L46.5 70.76 L31.93 70.76 C31.93
							 70.76 30.91 70.8 29.38 71.7 C28.57 72.16 27.97 72.97 27.97 72.97 C27.97 72.97 27.85 73.35 27.67 73.56
							 C27.5 73.78 27.37 73.95 27.16 74.03 C26.95 74.12 26.99 74.07 26.99 74.07 L19.41 74.07 C19.41 74.07 19.11
							 73.95 18.95 73.69 C18.77 73.44 18.9 73.52 18.73 73.32 C18.6 73.1 18.3 72.54 17.16 71.78 C15.96 71 14.81
							 70.93 14.81 70.93 L0 70.93 L3.23 66.03 L19.2 66.03 Z" class="st1"/>
			</g>
			<g id="shape8-14" v:mID="8" v:groupContext="shape" transform="translate(7.74075,-10.0485)">
				<title>Sheet.8</title>
				<path d="M0 40.69 L0 64.88 C0 64.88 0.09 67.01 1.88 69.91 C3.66 72.8 6.26 74.12 6.26 74.12 L8.31 70.93 C8.31 70.93
							 6.52 69.86 5.16 67.82 C3.84 65.78 3.84 64.03 3.84 64.03 L3.84 40.69 L0 40.69 Z" class="st1"/>
			</g>
			<g id="shape9-16" v:mID="9" v:groupContext="shape" transform="translate(30.8205,-10.0117)">
				<title>Sheet.9</title>
				<path d="M4.35 40.57 L4.35 63.9 C4.35 63.9 4.05 66.25 2.94 67.91 C1.83 69.61 0 70.98 0 70.98 L1.97 74.12 C1.97 74.12
							 4.94 71.96 6.39 69.65 C7.84 67.36 8.19 63.9 8.19 63.9 L8.19 40.57 L4.35 40.57 Z" class="st1"/>
			</g>
			<g id="shape10-18" v:mID="10" v:groupContext="shape" transform="translate(1.65975,-4.89825)">
				<title>Sheet.10</title>
				<path d="M0 35.54 L0 59.82 C0 59.82 0.25 63.57 2.59 67.48 C4.94 71.4 9.19 74.12 9.19 74.12 L11.2 70.93 C11.2 70.93
							 8.47 69.48 6.3 66.16 C4.08 62.8 3.96 59.73 3.96 59.73 L3.96 35.54 L0 35.54 Z" class="st1"/>
			</g>
			<g id="shape11-20" v:mID="11" v:groupContext="shape" transform="translate(10.218,-1.42109E-14)">
				<title>Sheet.11</title>
				<path d="M8.98 33.2 L8.98 58.83 C8.98 58.83 8.89 58.92 8.86 59.3 C8.81 59.69 8.56 59.95 8.56 59.95 L0 74.12 L26.23
							 74.12 L17.67 59.64 L17.42 59 L17.33 58.32 L17.33 33.24 L14.14 33.24 L14.14 59.27 C14.14 59.27 14.14
							 59.64 14.26 59.95 C14.34 60.24 14.52 60.71 14.52 60.71 L19.8 69.39 L6.43 69.39 L11.62 60.75 C11.62 60.75
							 11.79 60.45 11.92 60.03 C12.01 59.64 12.04 59.27 12.04 59.27 L12.04 33.2 L8.98 33.2 Z" class="st1"/>
			</g>
			<g id="shape12-22" v:mID="12" v:groupContext="shape" transform="translate(33.9345,-4.8555)">
				<title>Sheet.12</title>
				<path d="M7.15 35.41 L7.15 59.26 C7.15 59.26 7.12 62.33 4.86 65.86 C2.6 69.4 0 70.89 0 70.89 L1.92 74.12 C1.92 74.12
							 5.83 71.65 8.31 67.74 C10.73 63.82 11.03 59.26 11.03 59.26 L11.03 35.41 L7.15 35.41 Z" class="st1"/>
			</g>
			<g id="shape13-24" v:mID="13" v:groupContext="shape" transform="translate(11.6662,-59.5365)">
				<title>Sheet.13</title>
				<path d="M1.32 74.12 C1.32 74.12 0 66.93 5.28 63.35 C5.28 63.35 7.66 61.14 11.53 61.14 C15.67 61.14 18.05 63.31 18.05
							 63.31 C23.8 67.52 22.1 74.12 22.1 74.12 L1.32 74.12 Z" class="st1"/>
			</g>
		</g>
		<g id="group14-26" transform="translate(56.9498,-56.9348)" v:mID="14" v:groupContext="group">
			<title>Sheet.14</title>
			<g id="shape15-27" v:mID="15" v:groupContext="shape">
				<title>Sheet.15</title>
				<path d="M13.04 67.14 L13.04 74.12 L11.54 74.12 L11.54 73.38 L3.63 73.38 L3.63 74.12 L2.14 74.12 L2.14 67.22 C1.87
							 67.34 1.42 67.51 0.77 67.72 L0 66.29 C1.95 65.82 3.65 64.98 5.1 63.76 L0.13 63.76 L0.13 62.43 L6.74
							 62.43 L6.74 61.12 C4.32 61.19 2.59 61.22 1.54 61.22 L1.01 59.74 C1.62 59.76 2.38 59.77 3.28 59.77 C7.56
							 59.77 10.79 59.53 12.99 59.03 L13.68 60.35 C12.22 60.65 10.41 60.89 8.25 61.08 L8.25 62.43 L15.03 62.43
							 L15.03 63.76 L9.85 63.76 C11.08 64.94 12.85 65.76 15.16 66.22 L14.45 67.69 C14.24 67.59 14 67.51 13.75
							 67.43 C13.49 67.36 13.25 67.26 13.04 67.14 ZM3.06 66.77 L6.73 66.77 L6.73 63.81 C5.8 65.14 4.58 66.13
							 3.06 66.77 ZM11.54 68.12 L3.63 68.12 L3.63 69.34 L11.54 69.34 L11.54 68.12 ZM3.63 72.05 L11.54 72.05
							 L11.54 70.63 L3.63 70.63 L3.63 72.05 ZM8.24 63.8 L8.24 66.77 L12.22 66.77 C10.58 66.13 9.25 65.14 8.24
							 63.8 Z" class="st1"/>
			</g>
			<g id="shape16-29" v:mID="16" v:groupContext="shape" transform="translate(20.664,-0.20175)">
				<title>Sheet.16</title>
				<path d="M3.33 69.33 C2.89 71.07 2.21 72.67 1.29 74.12 L0 72.8 C0.95 71.47 1.59 70.03 1.93 68.51 L3.33 69.33 ZM2.33
							 66.72 C1.46 65.98 0.71 65.41 0.08 64.99 L1.05 63.78 C1.81 64.19 2.6 64.71 3.43 65.34 L2.33 66.72 ZM3.91
							 60.98 L6.05 60.98 L6.05 59.31 L7.52 59.31 L7.52 60.98 L10.45 60.98 L10.45 59.31 L11.9 59.31 L11.9 60.98
							 L14.55 60.98 L14.55 62.25 L11.9 62.25 L11.9 63.91 L14.8 63.91 L14.8 65.26 L11.72 65.26 C12.15 66.13
							 13.24 66.99 14.97 67.85 L14.28 69.28 C13.29 68.69 12.48 68.11 11.84 67.53 L11.84 70.83 L6.66 70.83 L6.66
							 71.86 C6.66 72.23 6.84 72.42 7.22 72.42 L12 72.42 C12.45 72.42 12.71 72.25 12.8 71.92 C12.89 71.58 12.97
							 70.98 13.04 70.13 L14.59 70.7 C14.42 72.19 14.18 73.08 13.89 73.38 C13.62 73.67 13.06 73.82 12.24 73.82
							 L7.03 73.82 C6.34 73.82 5.86 73.69 5.58 73.43 C5.31 73.16 5.18 72.67 5.18 71.94 L5.18 68.33 C4.91 68.56
							 4.42 68.9 3.7 69.35 L2.78 67.99 C4.56 67.19 5.69 66.29 6.16 65.28 L3.58 65.28 L3.58 63.93 L6.05 63.93
							 L6.05 62.32 L3.91 62.32 L3.91 61.45 L2.92 62.67 C2.04 61.87 1.25 61.24 0.53 60.79 L1.59 59.6 C2.5 60.18
							 3.27 60.71 3.91 61.19 L3.91 60.98 L3.91 60.98 ZM6.64 67.98 L6.64 69.56 L10.34 69.56 L10.34 67.98 L6.64
							 67.98 ZM7.87 65.26 C7.63 65.81 7.32 66.29 6.92 66.71 L11.02 66.71 C10.67 66.31 10.34 65.83 10.04 65.26
							 L7.87 65.26 ZM7.51 62.33 L7.51 63.91 L10.44 63.91 L10.44 62.33 L7.51 62.33 Z" class="st1"/>
			</g>
			<g id="shape17-31" v:mID="17" v:groupContext="shape" transform="translate(41.1802,-0.009)">
				<title>Sheet.17</title>
				<path d="M3.09 61.3 C2.52 61.41 1.69 61.5 0.6 61.57 L0.26 60.22 C2.66 60.11 4.72 59.72 6.45 59.07 L7 60.39 C6.23
							 60.65 5.42 60.87 4.57 61.05 L4.57 63.31 L7.01 63.31 L7.01 64.7 L4.57 64.7 L4.57 64.84 C5.77 65.96 6.68
							 66.85 7.29 67.51 L6.39 68.9 C6.06 68.45 5.74 68.04 5.42 67.67 C5.14 67.34 4.86 66.98 4.57 66.6 L4.57
							 74.06 L3.09 74.12 L3.09 67.51 C2.68 68.54 1.95 69.74 0.9 71.11 L0 69.67 C1.35 68.13 2.36 66.48 3.04
							 64.7 L0.1 64.7 L0.1 63.31 L3.09 63.31 L3.09 61.3 L3.09 61.3 ZM6.81 70.52 L6.81 69.02 L12.2 68.22 L12.2
							 58.97 L13.7 58.97 L13.7 68.04 L15.15 67.8 L15.15 69.27 L13.7 69.51 L13.7 74.12 L12.2 74.12 L12.2 69.7
							 L6.81 70.52 ZM10.31 67.25 C9.21 66.33 8.23 65.62 7.39 65.11 L8.34 64.04 C9.14 64.45 10.13 65.11 11.31
							 66.02 L10.31 67.25 ZM10.6 63.34 C9.41 62.39 8.45 61.69 7.71 61.24 L8.67 60.18 C9.37 60.56 10.35 61.22
							 11.62 62.14 L10.6 63.34 Z" class="st1"/>
			</g>
			<g id="shape18-33" v:mID="18" v:groupContext="shape" transform="translate(61.7963,-0.04125)">
				<title>Sheet.18</title>
				<path d="M6.01 63.76 L4.11 63.76 L4.11 66.61 C4.97 66.33 5.6 66.09 5.99 65.9 L5.99 67.48 C5.66 67.66 5.03 67.91 4.11
							 68.22 L4.11 72.16 C4.11 72.92 4 73.42 3.79 73.67 C3.56 73.93 3.05 74.06 2.26 74.06 L0.98 74.06 L0.61
							 72.43 L2.01 72.48 C2.37 72.48 2.54 72.3 2.54 71.95 L2.54 68.67 C1.63 68.9 0.91 69.09 0.39 69.22 L0 67.48
							 C0.93 67.36 1.78 67.2 2.54 67 L2.54 63.76 L0.16 63.76 L0.16 62.3 L2.54 62.3 L2.54 59 L4.13 59 L4.13
							 62.3 L6.02 62.3 L6.02 61.27 L9.48 61.27 L9.48 59 L11.08 59 L11.08 61.27 L14.87 61.27 L14.87 62.73 L11.08
							 62.73 L11.08 64.89 L14.32 64.89 L14.32 66.22 C14.18 66.8 13.83 67.56 13.27 68.49 C12.7 69.43 12.12 70.16
							 11.51 70.7 C12.58 71.58 13.79 72.2 15.15 72.58 L14.32 74.09 C12.91 73.63 11.58 72.83 10.33 71.69 C8.64
							 72.99 7.02 73.8 5.48 74.12 L4.59 72.66 C6.14 72.32 7.68 71.63 9.22 70.58 C8.4 69.75 7.59 68.61 6.8 67.16
							 L8.13 66.63 C8.87 67.94 9.61 68.96 10.35 69.7 C11.45 68.83 12.22 67.72 12.68 66.37 L6.3 66.37 L6.3 64.89
							 L9.48 64.89 L9.48 62.73 L6.02 62.73 L6.01 63.76 Z" class="st1"/>
			</g>
			<g id="shape19-35" v:mID="19" v:groupContext="shape" transform="translate(82.365,-0.04875)">
				<title>Sheet.19</title>
				<path d="M9.65 64.76 C9.9 66.07 10.48 67.44 11.39 68.88 C12.3 70.32 13.55 71.56 15.15 72.61 L13.92 74.09 C11.02 72.19
							 9.04 69.08 7.96 64.76 L7.71 64.76 C6.99 68.63 4.83 71.75 1.22 74.12 L0 72.59 C1.52 71.73 2.83 70.58
							 3.92 69.17 C5.01 67.75 5.68 66.29 5.94 64.78 L0.39 64.78 L0.39 63.07 L6.21 63.07 C6.35 62.09 6.42 60.75
							 6.42 59.03 L8.11 59.03 C8.11 60.88 8.06 62.22 7.98 63.07 L14.8 63.07 L14.8 64.78 L9.65 64.76 Z"
						class="st1"/>
			</g>
			<g id="shape20-37" v:mID="20" v:groupContext="shape" transform="translate(102.98,-0.156)">
				<title>Sheet.20</title>
				<path d="M11.98 67.87 L11.98 69.04 C11.04 69.55 9.88 70.01 8.49 70.44 L15.17 70.44 L15.17 71.74 L8.49 71.74 L8.49
							 72.4 C8.49 73.55 8 74.12 7.03 74.12 L4.67 74.12 L4.3 72.82 L6.5 72.89 C6.82 72.89 6.98 72.72 6.98 72.4
							 L6.98 71.74 L0 71.74 L0 70.44 L6.98 70.44 L6.98 69.75 C7.72 69.62 8.66 69.39 9.8 69.06 L3.03 69.06 L3.03
							 67.87 L11.98 67.87 ZM13.4 67.18 L1.79 67.18 L1.79 69.54 L0.36 69.54 L0.36 65.91 L1.16 65.91 L0.98 59.73
							 C2.38 59.68 3.56 59.53 4.52 59.26 L5.23 60.45 C4.63 60.65 3.67 60.8 2.36 60.89 L2.41 61.71 L4.92 61.71
							 L4.92 62.8 L2.46 62.8 L2.48 63.72 L4.92 63.72 L4.92 64.83 L2.51 64.83 L2.54 65.9 L12.62 65.9 L12.63
							 64.83 L10.38 64.83 L10.38 63.72 L12.68 63.72 L12.71 62.8 L10.38 62.8 L10.38 61.71 L12.74 61.71 L12.76
							 60.82 L10.2 60.82 L10.2 59.55 L14.18 59.55 L14 65.91 L14.86 65.91 L14.86 69.54 L13.41 69.54 L13.41 67.18
							 L13.4 67.18 ZM7.83 61.38 C7.3 61.73 6.67 62.06 5.95 62.37 L5.13 61.29 C6.03 61.04 6.62 60.82 6.9 60.63
							 C6.63 60.41 6.27 60.16 5.8 59.87 L6.67 59.12 C7.09 59.39 7.52 59.68 7.95 60 C8.41 59.69 8.73 59.4 8.93
							 59.13 L9.73 59.86 C9.5 60.18 9.18 60.47 8.78 60.73 C8.99 60.92 9.28 61.2 9.63 61.58 L8.65 62.3 C8.22
							 61.69 7.95 61.38 7.83 61.38 ZM7.93 64.68 C7.44 65.03 6.81 65.32 6.05 65.58 L5.36 64.5 C6.1 64.35 6.65
							 64.15 7.03 63.93 C6.82 63.77 6.45 63.51 5.95 63.15 L6.79 62.45 C6.99 62.59 7.18 62.7 7.35 62.8 C7.56
							 62.94 7.78 63.11 8.03 63.3 C8.35 63.1 8.72 62.76 9.14 62.3 L9.99 63.03 C9.59 63.42 9.23 63.74 8.9 63.99
							 C9.21 64.26 9.51 64.54 9.81 64.84 L8.78 65.63 C8.29 65 8 64.68 7.93 64.68 Z" class="st1"/>
			</g>
		</g>
		<g id="group21-39" transform="translate(57.2527,-0.75)" v:mID="21" v:groupContext="group">
			<title>Sheet.21</title>
			<g id="shape22-40" v:mID="22" v:groupContext="shape" transform="translate(0.156,-38.1097)">
				<title>Sheet.22</title>
				<path d="M4.28 74.12 L2.81 74.12 L2.81 63.65 L0 63.65 L0 62.3 L7.09 62.3 L7.09 63.65 L4.28 63.65 L4.28 74.12 Z"
						class="st1"/>
			</g>
			<g id="shape23-42" v:mID="23" v:groupContext="shape" transform="translate(8.4375,-38.1097)">
				<title>Sheet.23</title>
				<path d="M7.1 67.07 L7.1 62.3 L8.58 62.3 L8.58 74.12 L7.1 74.12 L7.1 68.45 L1.47 68.45 L1.47 74.12 L0 74.12 L0 62.3
							 L1.47 62.3 L1.47 67.07 L7.1 67.07 Z" class="st1"/>
			</g>
			<g id="shape24-44" v:mID="24" v:groupContext="shape" transform="translate(19.3035,-38.1105)">
				<title>Sheet.24</title>
				<path d="M0 62.3 L6.35 62.3 L6.35 63.65 L1.47 63.65 L1.47 66.96 L6.21 66.96 L6.21 68.31 L1.47 68.31 L1.47 72.78 L6.35
							 72.78 L6.35 74.12 L0 74.12 L0 62.3 Z" class="st1"/>
			</g>
			<g id="shape25-46" v:mID="25" v:groupContext="shape" transform="translate(32.193,-38.1097)">
				<title>Sheet.25</title>
				<path d="M7.1 67.07 L7.1 62.3 L8.58 62.3 L8.58 74.12 L7.1 74.12 L7.1 68.45 L1.47 68.45 L1.47 74.12 L0 74.12 L0 62.3
							 L1.47 62.3 L1.47 67.07 L7.1 67.07 Z" class="st1"/>
			</g>
			<g id="shape26-48" v:mID="26" v:groupContext="shape" transform="translate(42.2272,-37.8592)">
				<title>Sheet.26</title>
				<path d="M12.39 67.96 C12.39 71.47 9.61 74.12 6.19 74.12 C2.78 74.12 0 71.47 0 67.96 C0 64.57 2.81 61.8 6.19 61.8
							 C9.58 61.8 12.39 64.57 12.39 67.96 ZM10.91 67.96 C10.91 65.36 8.97 63.18 6.19 63.18 C3.42 63.18 1.48
							 65.36 1.48 67.96 C1.48 70.66 3.64 72.74 6.19 72.74 C8.75 72.74 10.91 70.66 10.91 67.96 Z" class="st1"/>
			</g>
			<g id="shape27-50" v:mID="27" v:groupContext="shape" transform="translate(56.058,-37.6238)">
				<title>Sheet.27</title>
				<path d="M0 61.25 L8.87 70.55 L8.87 61.81 L10.35 61.81 L10.35 74.12 L1.47 64.83 L1.47 73.64 L0 73.64 L0 61.25 Z"
						class="st1"/>
			</g>
			<g id="shape28-52" v:mID="28" v:groupContext="shape" transform="translate(67.863,-37.8592)">
				<title>Sheet.28</title>
				<path d="M11.57 67.91 L11.57 68.39 C11.57 71.63 9.28 74.12 5.98 74.12 C2.67 74.12 0 71.27 0 67.99 C0 64.59 2.73 61.8
							 6.13 61.8 C7.97 61.8 9.79 62.63 10.95 64.09 L9.91 65.08 C9.06 63.92 7.64 63.15 6.19 63.15 C3.55 63.15
							 1.48 65.3 1.48 67.94 C1.48 70.42 3.52 72.78 6.07 72.78 C7.91 72.78 9.88 71.19 9.94 69.26 L6.88 69.26
							 L6.88 67.91 L11.57 67.91 Z" class="st1"/>
			</g>
			<g id="shape29-54" v:mID="29" v:groupContext="shape" transform="translate(85.7392,-38.1105)">
				<title>Sheet.29</title>
				<path d="M6.49 62.3 L8.42 62.3 L3.1 67.62 L8.51 74.12 L6.52 74.12 L2.07 68.62 L1.48 69.18 L1.48 74.12 L0 74.12 L0
							 62.3 L1.48 62.3 L1.48 67.43 L6.49 62.3 Z" class="st1"/>
			</g>
			<g id="shape30-56" v:mID="30" v:groupContext="shape" transform="translate(94.4737,-37.8592)">
				<title>Sheet.30</title>
				<path d="M12.39 67.96 C12.39 71.47 9.61 74.12 6.19 74.12 C2.78 74.12 0 71.47 0 67.96 C0 64.57 2.81 61.8 6.19 61.8
							 C9.58 61.8 12.39 64.57 12.39 67.96 ZM10.92 67.96 C10.92 65.36 8.97 63.18 6.19 63.18 C3.42 63.18 1.47
							 65.36 1.47 67.96 C1.47 70.66 3.64 72.74 6.19 72.74 C8.75 72.74 10.92 70.66 10.92 67.96 Z" class="st1"/>
			</g>
			<g id="shape31-58" v:mID="31" v:groupContext="shape" transform="translate(108.305,-37.6238)">
				<title>Sheet.31</title>
				<path d="M0 61.25 L8.87 70.55 L8.87 61.81 L10.35 61.81 L10.35 74.12 L1.47 64.83 L1.47 73.64 L0 73.64 L0 61.25 Z"
						class="st1"/>
			</g>
			<g id="shape32-60" v:mID="32" v:groupContext="shape" transform="translate(120.11,-37.8592)">
				<title>Sheet.32</title>
				<path d="M11.57 67.91 L11.57 68.39 C11.57 71.63 9.28 74.12 5.98 74.12 C2.66 74.12 0 71.27 0 67.99 C0 64.59 2.73 61.8
							 6.13 61.8 C7.97 61.8 9.79 62.63 10.95 64.09 L9.91 65.08 C9.06 63.92 7.64 63.15 6.19 63.15 C3.55 63.15
							 1.48 65.3 1.48 67.94 C1.48 70.42 3.52 72.78 6.07 72.78 C7.9 72.78 9.88 71.19 9.94 69.26 L6.88 69.26
							 L6.88 67.91 L11.57 67.91 Z" class="st1"/>
			</g>
			<g id="shape33-62" v:mID="33" v:groupContext="shape" transform="translate(1.05075,-19.047)">
				<title>Sheet.33</title>
				<path d="M1.47 62.05 L1.47 69.03 C1.47 70.96 2.05 72.74 4.33 72.74 C6.6 72.74 7.18 70.96 7.18 69.03 L7.18 62.05 L8.66
							 62.05 L8.66 69.53 C8.66 72.13 7.04 74.12 4.33 74.12 C1.62 74.12 0 72.13 0 69.53 L0 62.05 L1.47 62.05
							 Z" class="st1"/>
			</g>
			<g id="shape34-64" v:mID="34" v:groupContext="shape" transform="translate(11.76,-18.8115)">
				<title>Sheet.34</title>
				<path d="M0 61.25 L8.88 70.55 L8.88 61.81 L10.35 61.81 L10.35 74.12 L1.47 64.83 L1.47 73.64 L0 73.64 L0 61.25 L0
							 61.25 Z" class="st1"/>
			</g>
			<g id="shape35-66" v:mID="35" v:groupContext="shape" transform="translate(24.3202,-19.2983)">
				<title>Sheet.35</title>
				<path d="M1.47 74.12 L0 74.12 L0 62.3 L1.47 62.3 L1.47 74.12 Z" class="st1"/>
			</g>
			<g id="shape36-68" v:mID="36" v:groupContext="shape" transform="translate(26.9228,-18.6705)">
				<title>Sheet.36</title>
				<path d="M5.14 70.42 L8.66 61.67 L10.27 61.67 L5.14 74.12 L0 61.67 L1.62 61.67 L5.14 70.42 Z" class="st1"/>
			</g>
			<g id="shape37-70" v:mID="37" v:groupContext="shape" transform="translate(38.3543,-19.2983)">
				<title>Sheet.37</title>
				<path d="M0 62.3 L6.35 62.3 L6.35 63.65 L1.47 63.65 L1.47 66.96 L6.21 66.96 L6.21 68.31 L1.47 68.31 L1.47 72.78 L6.35
							 72.78 L6.35 74.12 L0 74.12 L0 62.3 Z" class="st1"/>
			</g>
			<g id="shape38-72" v:mID="38" v:groupContext="shape" transform="translate(46.68,-19.2983)">
				<title>Sheet.38</title>
				<path d="M7.35 74.12 L5.57 74.12 L2.09 69.12 L1.47 69.12 L1.47 74.12 L0 74.12 L0 62.3 L1.79 62.3 C2.84 62.3 3.97
							 62.32 4.91 62.85 C5.9 63.43 6.46 64.54 6.46 65.67 C6.46 67.36 5.33 68.78 3.62 68.98 L7.35 74.12 ZM1.47
							 67.9 L1.95 67.9 C3.45 67.9 5.08 67.61 5.08 65.73 C5.08 63.89 3.32 63.62 1.87 63.62 L1.48 63.62 L1.48
							 67.9 L1.47 67.9 Z" class="st1"/>
			</g>
			<g id="shape39-74" v:mID="39" v:groupContext="shape" transform="translate(54.7245,-19.0477)">
				<title>Sheet.39</title>
				<path d="M5.88 64.29 C5.44 63.56 4.88 63.18 3.98 63.18 C3.04 63.18 2.01 63.82 2.01 64.86 C2.01 65.78 2.92 66.27 3.65
							 66.55 L4.5 66.88 C6.18 67.54 7.43 68.46 7.43 70.44 C7.43 72.59 5.77 74.12 3.65 74.12 C1.74 74.12 0.25
							 72.71 0 70.82 L1.49 70.5 C1.47 71.8 2.51 72.74 3.78 72.74 C5.05 72.74 5.96 71.68 5.96 70.44 C5.96 69.17
							 4.94 68.62 3.92 68.2 L3.1 67.85 C1.76 67.27 0.53 66.5 0.53 64.86 C0.53 62.94 2.23 61.8 4.01 61.8 C5.33
							 61.8 6.41 62.44 7.06 63.59 L5.88 64.29 Z" class="st1"/>
			</g>
			<g id="shape40-76" v:mID="40" v:groupContext="shape" transform="translate(63.8835,-19.2983)">
				<title>Sheet.40</title>
				<path d="M1.47 74.12 L0 74.12 L0 62.3 L1.47 62.3 L1.47 74.12 Z" class="st1"/>
			</g>
			<g id="shape41-78" v:mID="41" v:groupContext="shape" transform="translate(66.6263,-19.2983)">
				<title>Sheet.41</title>
				<path d="M4.28 74.12 L2.81 74.12 L2.81 63.65 L0 63.65 L0 62.3 L7.09 62.3 L7.09 63.65 L4.28 63.65 L4.28 74.12 Z"
						class="st1"/>
			</g>
			<g id="shape42-80" v:mID="42" v:groupContext="shape" transform="translate(73.8075,-19.299)">
				<title>Sheet.42</title>
				<path d="M0 62.3 L1.69 62.3 L4.6 67.35 L7.49 62.3 L9.19 62.3 L5.33 68.98 L5.33 74.12 L3.86 74.12 L3.86 68.98 L0 62.3
							 Z" class="st1"/>
			</g>
			<g id="shape43-82" v:mID="43" v:groupContext="shape" transform="translate(88.0283,-19.047)">
				<title>Sheet.43</title>
				<path d="M12.39 67.96 C12.39 71.47 9.61 74.12 6.19 74.12 C2.77 74.12 0 71.47 0 67.96 C0 64.57 2.81 61.8 6.19 61.8
							 C9.58 61.8 12.39 64.57 12.39 67.96 ZM10.91 67.96 C10.91 65.36 8.97 63.18 6.19 63.18 C3.42 63.18 1.48
							 65.36 1.48 67.96 C1.48 70.66 3.64 72.74 6.19 72.74 C8.75 72.74 10.91 70.66 10.91 67.96 Z" class="st1"/>
			</g>
			<g id="shape44-84" v:mID="44" v:groupContext="shape" transform="translate(101.985,-19.2983)">
				<title>Sheet.44</title>
				<path d="M1.48 63.65 L1.48 66.97 L5.58 66.97 L5.58 68.32 L1.48 68.32 L1.48 74.12 L0 74.12 L0 62.3 L5.73 62.3 L5.73
							 63.65 L1.48 63.65 Z" class="st1"/>
			</g>
			<g id="shape45-86" v:mID="45" v:groupContext="shape" transform="translate(113.65,-19.0477)">
				<title>Sheet.45</title>
				<path d="M5.88 64.29 C5.44 63.56 4.88 63.18 3.98 63.18 C3.04 63.18 2.01 63.82 2.01 64.86 C2.01 65.78 2.92 66.27 3.66
							 66.55 L4.5 66.88 C6.18 67.54 7.43 68.46 7.43 70.44 C7.43 72.59 5.77 74.12 3.66 74.12 C1.74 74.12 0.25
							 72.71 0 70.82 L1.49 70.5 C1.48 71.8 2.51 72.74 3.78 72.74 C5.05 72.74 5.96 71.68 5.96 70.44 C5.96 69.17
							 4.94 68.62 3.92 68.2 L3.1 67.85 C1.76 67.27 0.53 66.5 0.53 64.86 C0.53 62.94 2.23 61.8 4.02 61.8 C5.33
							 61.8 6.41 62.44 7.06 63.59 L5.88 64.29 Z" class="st1"/>
			</g>
			<g id="shape46-88" v:mID="46" v:groupContext="shape" transform="translate(122.198,-19.0477)">
				<title>Sheet.46</title>
				<path d="M9.27 64.31 C8.42 63.56 7.26 63.15 6.15 63.15 C3.5 63.15 1.47 65.36 1.47 67.98 C1.47 70.57 3.48 72.78 6.11
							 72.78 C7.28 72.78 8.39 72.34 9.27 71.55 L9.27 73.29 C8.36 73.82 7.2 74.12 6.16 74.12 C2.79 74.12 0 71.44
							 0 68.03 C0 64.53 2.81 61.8 6.29 61.8 C7.32 61.8 8.37 62.05 9.27 62.6 L9.27 64.31 Z" class="st1"/>
			</g>
			<g id="shape47-90" v:mID="47" v:groupContext="shape" transform="translate(133.332,-19.2983)">
				<title>Sheet.47</title>
				<path d="M1.47 74.12 L0 74.12 L0 62.3 L1.47 62.3 L1.47 74.12 Z" class="st1"/>
			</g>
			<g id="shape48-92" v:mID="48" v:groupContext="shape" transform="translate(137.171,-19.2983)">
				<title>Sheet.48</title>
				<path d="M0 62.3 L6.35 62.3 L6.35 63.65 L1.48 63.65 L1.48 66.96 L6.21 66.96 L6.21 68.31 L1.48 68.31 L1.48 72.78 L6.35
							 72.78 L6.35 74.12 L0 74.12 L0 62.3 Z" class="st1"/>
			</g>
			<g id="shape49-94" v:mID="49" v:groupContext="shape" transform="translate(145.358,-18.8115)">
				<title>Sheet.49</title>
				<path d="M0 61.25 L8.87 70.55 L8.87 61.81 L10.35 61.81 L10.35 74.12 L1.47 64.83 L1.47 73.64 L0 73.64 L0 61.25 Z"
						class="st1"/>
			</g>
			<g id="shape50-96" v:mID="50" v:groupContext="shape" transform="translate(157.305,-19.0477)">
				<title>Sheet.50</title>
				<path d="M9.27 64.31 C8.42 63.56 7.26 63.15 6.15 63.15 C3.5 63.15 1.47 65.36 1.47 67.98 C1.47 70.57 3.48 72.78 6.11
							 72.78 C7.28 72.78 8.39 72.34 9.27 71.55 L9.27 73.29 C8.36 73.82 7.2 74.12 6.16 74.12 C2.79 74.12 0 71.44
							 0 68.03 C0 64.53 2.8 61.8 6.29 61.8 C7.32 61.8 8.37 62.05 9.27 62.6 L9.27 64.31 Z" class="st1"/>
			</g>
			<g id="shape51-98" v:mID="51" v:groupContext="shape" transform="translate(168.484,-19.2983)">
				<title>Sheet.51</title>
				<path d="M0 62.3 L6.35 62.3 L6.35 63.65 L1.47 63.65 L1.47 66.96 L6.21 66.96 L6.21 68.31 L1.47 68.31 L1.47 72.78 L6.35
							 72.78 L6.35 74.12 L0 74.12 L0 62.3 Z" class="st1"/>
			</g>
			<g id="shape52-100" v:mID="52" v:groupContext="shape" transform="translate(-7.29417E-14,-0.48675)">
				<title>Sheet.52</title>
				<path d="M2.93 71.16 L1.59 74.12 L0 74.12 L5.64 61.8 L11.29 74.12 L9.71 74.12 L8.36 71.16 L2.93 71.16 ZM5.64 65.03
							 L3.54 69.81 L7.75 69.81 L5.64 65.03 Z" class="st1"/>
			</g>
			<g id="shape53-102" v:mID="53" v:groupContext="shape" transform="translate(12.2933,2.13163E-13)">
				<title>Sheet.53</title>
				<path d="M0 61.25 L8.87 70.55 L8.87 61.81 L10.35 61.81 L10.35 74.12 L1.47 64.83 L1.47 73.64 L0 73.64 L0 61.25 Z"
						class="st1"/>
			</g>
			<g id="shape54-104" v:mID="54" v:groupContext="shape" transform="translate(24.7747,-0.486)">
				<title>Sheet.54</title>
				<path d="M0 62.3 L2.45 62.3 C6.07 62.3 9.08 64.22 9.08 68.15 C9.08 72.18 6.13 74.12 2.4 74.12 L0 74.12 L0 62.3 ZM1.47
							 72.78 L1.99 72.78 C5 72.78 7.61 71.65 7.61 68.21 C7.61 64.76 5 63.65 1.99 63.65 L1.47 63.65 L1.47 72.78
							 Z" class="st1"/>
			</g>
			<g id="shape55-106" v:mID="55" v:groupContext="shape" transform="translate(39.075,-0.486)">
				<title>Sheet.55</title>
				<path d="M4.28 74.12 L2.81 74.12 L2.81 63.65 L0 63.65 L0 62.3 L7.09 62.3 L7.09 63.65 L4.28 63.65 L4.28 74.12 Z"
						class="st1"/>
			</g>
			<g id="shape56-108" v:mID="56" v:groupContext="shape" transform="translate(47.4802,-0.486)">
				<title>Sheet.56</title>
				<path d="M0 62.3 L6.35 62.3 L6.35 63.65 L1.47 63.65 L1.47 66.96 L6.21 66.96 L6.21 68.31 L1.47 68.31 L1.47 72.78 L6.35
							 72.78 L6.35 74.12 L0 74.12 L0 62.3 Z" class="st1"/>
			</g>
			<g id="shape57-110" v:mID="57" v:groupContext="shape" transform="translate(55.1475,-0.23625)">
				<title>Sheet.57</title>
				<path d="M9.27 64.31 C8.42 63.56 7.26 63.15 6.15 63.15 C3.5 63.15 1.48 65.36 1.48 67.98 C1.48 70.57 3.48 72.78 6.12
							 72.78 C7.28 72.78 8.39 72.34 9.27 71.55 L9.27 73.29 C8.36 73.82 7.2 74.12 6.16 74.12 C2.79 74.12 0 71.44
							 0 68.02 C0 64.53 2.81 61.8 6.29 61.8 C7.32 61.8 8.37 62.05 9.27 62.6 L9.27 64.31 Z" class="st1"/>
			</g>
			<g id="shape58-112" v:mID="58" v:groupContext="shape" transform="translate(66.2048,-0.486)">
				<title>Sheet.58</title>
				<path d="M7.1 67.07 L7.1 62.3 L8.57 62.3 L8.57 74.12 L7.1 74.12 L7.1 68.45 L1.47 68.45 L1.47 74.12 L0 74.12 L0 62.3
							 L1.47 62.3 L1.47 67.07 L7.1 67.07 Z" class="st1"/>
			</g>
			<g id="shape59-114" v:mID="59" v:groupContext="shape" transform="translate(76.9267,2.13163E-13)">
				<title>Sheet.59</title>
				<path d="M0 61.25 L8.88 70.55 L8.88 61.81 L10.35 61.81 L10.35 74.12 L1.48 64.83 L1.48 73.64 L0 73.64 L0 61.25 Z"
						class="st1"/>
			</g>
			<g id="shape60-116" v:mID="60" v:groupContext="shape" transform="translate(88.7017,-0.2355)">
				<title>Sheet.60</title>
				<path d="M12.39 67.96 C12.39 71.47 9.61 74.12 6.19 74.12 C2.78 74.12 0 71.47 0 67.96 C0 64.57 2.81 61.8 6.19 61.8
							 C9.58 61.8 12.39 64.57 12.39 67.96 ZM10.92 67.96 C10.92 65.36 8.97 63.18 6.2 63.18 C3.42 63.18 1.48
							 65.36 1.48 67.96 C1.48 70.66 3.64 72.74 6.2 72.74 C8.75 72.74 10.92 70.66 10.92 67.96 Z" class="st1"/>
			</g>
			<g id="shape61-118" v:mID="61" v:groupContext="shape" transform="translate(102.677,-0.486)">
				<title>Sheet.61</title>
				<path d="M1.47 72.78 L5.06 72.78 L5.06 74.12 L0 74.12 L0 62.3 L1.47 62.3 L1.47 72.78 Z" class="st1"/>
			</g>
			<g id="shape62-120" v:mID="62" v:groupContext="shape" transform="translate(108.038,-0.2355)">
				<title>Sheet.62</title>
				<path d="M12.38 67.96 C12.38 71.47 9.61 74.12 6.19 74.12 C2.78 74.12 0 71.47 0 67.96 C0 64.57 2.81 61.8 6.19 61.8
							 C9.58 61.8 12.38 64.57 12.38 67.96 ZM10.91 67.96 C10.91 65.36 8.97 63.18 6.19 63.18 C3.42 63.18 1.47
							 65.36 1.47 67.96 C1.47 70.66 3.64 72.74 6.19 72.74 C8.75 72.74 10.91 70.66 10.91 67.96 Z" class="st1"/>
			</g>
			<g id="shape63-122" v:mID="63" v:groupContext="shape" transform="translate(121.206,-0.23625)">
				<title>Sheet.63</title>
				<path d="M11.57 67.92 L11.57 68.39 C11.57 71.63 9.28 74.12 5.98 74.12 C2.67 74.12 0 71.27 0 67.99 C0 64.59 2.73 61.8
							 6.13 61.8 C7.97 61.8 9.79 62.63 10.95 64.09 L9.91 65.08 C9.07 63.92 7.64 63.15 6.2 63.15 C3.55 63.15
							 1.48 65.29 1.48 67.94 C1.48 70.43 3.52 72.78 6.07 72.78 C7.91 72.78 9.88 71.19 9.95 69.26 L6.89 69.26
							 L6.89 67.91 L11.57 67.91 L11.57 67.92 Z" class="st1"/>
			</g>
			<g id="shape64-124" v:mID="64" v:groupContext="shape" transform="translate(133.172,-0.48675)">
				<title>Sheet.64</title>
				<path d="M0 62.3 L1.7 62.3 L4.59 67.35 L7.5 62.3 L9.19 62.3 L5.33 68.98 L5.33 74.12 L3.86 74.12 L3.86 68.98 L0 62.3
							 Z" class="st1"/>
			</g>
		</g>
	</g>
</svg>
